<svg width="42" height="40" viewBox="0 0 42 40" fill="none" xmlns="http://www.w3.org/2000/svg">
<path d="M23.3944 4.6264V19.2428L21.9561 19.7503V4.36469C22.3912 4.40434 22.8787 4.49951 23.3944 4.6264Z" fill="#E0E3E1"/>
<path d="M23.3944 22.6252V35.7744L21.9561 36.6587V23.1407L23.3944 22.6252Z" fill="#E0E3E1"/>
<path d="M33.4907 13.2908V27.6771C33.4907 27.9626 33.4625 28.2164 33.4222 28.4504C33.253 29.3228 32.6809 30.0762 31.9154 30.5481L23.3943 35.7744V22.6252L29.3208 20.5117C31.8792 19.4648 30.9888 16.5622 30.9888 16.5622L23.3943 19.2428V4.6264C25.8801 5.23707 28.9461 6.66461 28.9461 6.66461C33.6116 9.01608 33.4907 13.2908 33.4907 13.2908Z" fill="white"/>
<path d="M20.2845 4.36467V19.7464L11.8883 16.7842C11.8883 16.7842 11.1792 17.5535 11.7634 18.8185C8.37908 16.007 7.00925 12.7594 6.46938 10.3088C6.46938 10.3048 6.46938 10.3048 6.46938 10.3008C6.43312 9.67827 6.54996 9.31742 6.54996 9.31742C9.54747 1.39857 19.1403 0.403259 19.1403 0.403259C17.4562 1.5096 18.3103 2.67145 18.3103 2.67145C18.3103 2.67145 18.7092 3.34557 19.5392 3.67073C20.3651 3.99192 20.2845 4.36467 20.2845 4.36467Z" fill="url(#paint0_linear_2_823)"/>
<path d="M20.2832 23.1407C18.3775 23.4104 12.9224 23.3073 12.9224 23.3073C6.6494 22.8037 3.20468 18.9097 3.20468 18.9097C3.20468 18.9097 3.20468 18.9057 3.20065 18.9057C-1.66627 12.0615 6.16996 6.52979 6.16996 6.52979C6.16996 6.52979 5.9806 8.08818 6.46407 10.3009C6.46407 10.3048 6.46407 10.3048 6.46407 10.3088C7.00394 12.7594 8.37377 16.007 11.7581 18.8185V18.8224C13.7886 20.5077 16.5444 22.0384 20.2832 23.1407Z" fill="url(#paint1_linear_2_823)"/>
<path d="M20.2839 23.1407V33.9939C20.2839 35.0844 19.2042 35.6792 18.2252 35.358C16.952 34.9337 15.7192 34.4024 14.5146 33.8076C12.0609 32.5981 9.67986 31.234 7.33101 29.8382C-1.16596 24.7824 1.07412 16.8477 1.07412 16.8477C1.83558 18.3783 3.1208 18.8779 3.20138 18.9057C3.20541 18.9057 3.20541 18.9097 3.20541 18.9097C3.20541 18.9097 6.65012 22.8036 12.9191 23.3073C12.9231 23.3033 18.3783 23.4104 20.2839 23.1407Z" fill="url(#paint2_linear_2_823)"/>
<path d="M36.5284 12.002V28.8668L35.2673 28.1213V13.2075C35.2673 13.2075 35.1384 12.2399 36.5284 12.002Z" fill="#E0E3E1"/>
<path d="M42 15.6581C42 17.9064 42 25.0203 42 25.0203C42 25.0203 42.0362 26.8206 40.1709 27.8476L39.1233 28.4424C39.1233 28.4424 38.5029 28.7874 38.1725 29.7074C37.8381 30.6313 36.9356 31.8407 36.9356 31.8407L35.316 33.8869C35.316 33.8869 35.4651 34.561 35.0542 34.9615L29.5023 39.8706C29.5023 39.8706 29.0471 40.1324 28.3702 39.8706L26.3678 37.4597C26.3678 37.4597 25.977 36.9521 27.3227 36.048C28.6683 35.1439 32.5401 32.8638 32.5401 32.8638C32.5401 32.8638 33.0397 32.4514 34.0872 32.6021L34.478 32.6854C34.478 32.6854 36.1863 29.9691 36.5448 28.8786L36.5287 28.8667V12.002C36.5972 11.9901 36.6617 11.9821 36.7382 11.9742C36.7382 11.9742 35.8881 7.36248 29.5345 3.98002C29.5345 3.98002 24.2285 1.31925 22.8103 1.04167C22.8103 1.04167 22.496 0.890989 22.5243 0.676859C22.5525 0.462729 23.0641 0.573759 23.0641 0.573759C25.0181 0.926678 29.2324 1.91009 32.8544 4.27345C37.7616 7.46955 38.5996 10.4238 38.5996 10.4238L39.079 12.1011C39.079 12.1011 42 13.4057 42 15.6581Z" fill="white"/>
<defs>
<linearGradient id="paint0_linear_2_823" x1="6.45927" y1="10.0758" x2="20.2864" y2="10.0758" gradientUnits="userSpaceOnUse">
<stop stop-color="#FAA523"/>
<stop offset="0.1461" stop-color="#F49420"/>
<stop offset="0.5144" stop-color="#E86F1A"/>
<stop offset="0.8121" stop-color="#E05816"/>
<stop offset="1" stop-color="#DD5015"/>
</linearGradient>
<linearGradient id="paint1_linear_2_823" x1="10.9461" y1="23.3249" x2="10.9461" y2="6.52919" gradientUnits="userSpaceOnUse">
<stop stop-color="#FAA523"/>
<stop offset="1" stop-color="#DD5015"/>
</linearGradient>
<linearGradient id="paint2_linear_2_823" x1="0.808208" y1="26.1451" x2="20.2837" y2="26.1451" gradientUnits="userSpaceOnUse">
<stop stop-color="#FAA523"/>
<stop offset="0.6543" stop-color="#E66A19"/>
<stop offset="1" stop-color="#DD5015"/>
</linearGradient>
</defs>
</svg>
