<svg width="42" height="41" viewBox="0 0 42 41" fill="none" xmlns="http://www.w3.org/2000/svg">
<path fill-rule="evenodd" clip-rule="evenodd" d="M19.1778 0H22.8222V2.83059C24.7313 3.03556 26.5481 3.559 28.2212 4.3482L29.672 1.83537L32.8282 3.6576L31.3343 6.24514C32.7949 7.36235 34.078 8.71045 35.1323 10.2368L37.8427 8.67196L39.6649 11.8281L36.8871 13.4319C37.5788 15.0675 38.0378 16.8308 38.2212 18.6778H41.5004V22.3223H38.2212C38.0378 24.1693 37.5788 25.9326 36.887 27.5683L39.6649 29.1721L37.8427 32.3283L35.1322 30.7634C34.078 32.2896 32.7949 33.6376 31.3344 34.7548L32.8284 37.3426L29.6722 39.1648L28.2213 36.6517C26.5482 37.441 24.7314 37.9644 22.8222 38.1694V41H19.1778V38.1694C17.2687 37.9644 15.452 37.441 13.7789 36.6519L12.3282 39.1646L9.17202 37.3424L10.6659 34.755C9.20523 33.6378 7.92212 32.2897 6.86786 30.7635L4.15775 32.3281L2.33552 29.172L5.11306 27.5683C4.42123 25.9327 3.96219 24.1693 3.77883 22.3223L0.5 22.3222V18.6778H3.77882C3.96218 16.8307 4.42123 15.0673 5.11308 13.4316L2.33552 11.828L4.15775 8.67182L6.86788 10.2365C7.92219 8.71017 9.20536 7.36207 10.6661 6.24487L9.17225 3.6575L12.3284 1.83527L13.7792 4.34802C15.4522 3.55891 17.2688 3.03555 19.1778 2.83059V0ZM21 34.2667C28.2542 34.2667 34.3111 28.2017 34.3111 20.5C34.3111 12.7983 28.2542 6.73333 21 6.73333C13.7458 6.73333 7.68889 12.7983 7.68889 20.5C7.68889 28.2017 13.7458 34.2667 21 34.2667Z" fill="white"/>
</svg>
