<svg width="40" height="33" viewBox="0 0 40 33" fill="none" xmlns="http://www.w3.org/2000/svg">
<mask id="path-1-inside-1_2_60" fill="white">
<path fill-rule="evenodd" clip-rule="evenodd" d="M20.0055 0C28.2775 0.006 35.7055 5.804 39.8775 15.512C40.0415 15.89 40.0415 16.318 39.8775 16.696C35.7075 26.406 28.2775 32.204 20.0055 32.21H19.9935C11.7215 32.204 4.2935 26.406 0.1215 16.696C-0.0405 16.318 -0.0405 15.89 0.1215 15.512C4.2935 5.804 11.7235 0.006 19.9935 0H20.0055ZM19.9995 3C13.1275 3.002 6.8595 7.888 3.1395 16.104C6.8595 24.322 13.1255 29.208 19.9995 29.21C26.8735 29.208 33.1395 24.322 36.8595 16.104C33.1395 7.888 26.8735 3.002 19.9995 3ZM19.9989 8.2816C24.3129 8.2816 27.8229 11.7916 27.8229 16.1056C27.8229 20.4176 24.3129 23.9256 19.9989 23.9256C15.6849 23.9256 12.1769 20.4176 12.1769 16.1056C12.1769 11.7916 15.6849 8.2816 19.9989 8.2816ZM19.9989 11.2816C17.3389 11.2816 15.1769 13.4456 15.1769 16.1056C15.1769 18.7636 17.3389 20.9256 19.9989 20.9256C22.6589 20.9256 24.8229 18.7636 24.8229 16.1056C24.8229 13.4456 22.6589 11.2816 19.9989 11.2816Z"/>
</mask>
<path d="M20.0055 0L20.0084 -4H20.0055V0ZM39.8775 15.512L36.2025 17.0913L36.208 17.1041L39.8775 15.512ZM39.8775 16.696L36.208 15.1039L36.205 15.1108L36.2021 15.1176L39.8775 16.696ZM20.0055 32.21V36.21H20.0084L20.0055 32.21ZM19.9935 32.21L19.9906 36.21H19.9935V32.21ZM0.1215 16.696L-3.55508 18.2717L-3.55363 18.2751L0.1215 16.696ZM0.1215 15.512L-3.55351 13.9327L-3.55508 13.9363L0.1215 15.512ZM19.9935 0V-4L19.9906 -4L19.9935 0ZM19.9995 3L20.0007 -1L19.9983 -1L19.9995 3ZM3.1395 16.104L-0.504392 14.4541L-1.25132 16.1038L-0.504543 17.7535L3.1395 16.104ZM19.9995 29.21L19.9983 33.21L20.0007 33.21L19.9995 29.21ZM36.8595 16.104L40.5035 17.7535L41.2503 16.1038L40.5034 14.4541L36.8595 16.104ZM20.0026 4C26.1979 4.00449 32.4476 8.35403 36.2025 17.0913L43.5525 13.9327C38.9634 3.25397 30.3571 -3.99249 20.0084 -4L20.0026 4ZM36.208 17.1041C35.9313 16.4664 35.9313 15.7416 36.208 15.1039L43.547 18.2881C44.1517 16.8944 44.1517 15.3136 43.547 13.9199L36.208 17.1041ZM36.2021 15.1176C32.4495 23.8557 26.1982 28.2055 20.0026 28.21L20.0084 36.21C30.3568 36.2025 38.9655 28.9563 43.5529 18.2744L36.2021 15.1176ZM20.0055 28.21H19.9935V36.21H20.0055V28.21ZM19.9964 28.21C13.8012 28.2055 7.55153 23.8562 3.79663 15.1169L-3.55363 18.2751C1.03547 28.9558 9.64176 36.2025 19.9906 36.21L19.9964 28.21ZM3.79808 15.1203C4.06731 15.7485 4.06731 16.4595 3.79808 17.0877L-3.55508 13.9363C-4.14831 15.3205 -4.14831 16.8875 -3.55508 18.2717L3.79808 15.1203ZM3.79651 17.0913C7.55125 8.35426 13.8029 4.00449 19.9964 4L19.9906 -4C9.64412 -3.99249 1.03575 3.25373 -3.55351 13.9327L3.79651 17.0913ZM19.9935 4H20.0055V-4H19.9935V4ZM19.9983 -1C11.0358 -0.997391 3.61719 5.3512 -0.504392 14.4541L6.78339 17.7539C10.1018 10.4248 15.2192 7.00139 20.0007 7L19.9983 -1ZM-0.504543 17.7535C3.61686 26.8583 11.0333 33.2074 19.9983 33.21L20.0007 25.21C15.2177 25.2086 10.1021 21.7857 6.78354 14.4545L-0.504543 17.7535ZM20.0007 33.21C28.9657 33.2074 36.3821 26.8583 40.5035 17.7535L33.2155 14.4545C29.8969 21.7857 24.7813 25.2086 19.9983 25.21L20.0007 33.21ZM40.5034 14.4541C36.3819 5.35147 28.9655 -0.997392 20.0007 -1L19.9983 7C24.7815 7.00139 29.8971 10.4245 33.2156 17.7539L40.5034 14.4541ZM19.9989 12.2816C22.1038 12.2816 23.8229 14.0007 23.8229 16.1056H31.8229C31.8229 9.58246 26.522 4.2816 19.9989 4.2816V12.2816ZM23.8229 16.1056C23.8229 18.2065 22.1058 19.9256 19.9989 19.9256V27.9256C26.52 27.9256 31.8229 22.6287 31.8229 16.1056H23.8229ZM19.9989 19.9256C17.8934 19.9256 16.1769 18.2078 16.1769 16.1056H8.1769C8.1769 22.6274 13.4764 27.9256 19.9989 27.9256V19.9256ZM16.1769 16.1056C16.1769 13.9994 17.8954 12.2816 19.9989 12.2816V4.2816C13.4744 4.2816 8.1769 9.58379 8.1769 16.1056H16.1769ZM19.9989 7.2816C15.1276 7.2816 11.1769 11.2386 11.1769 16.1056H19.1769C19.1769 15.6526 19.5502 15.2816 19.9989 15.2816V7.2816ZM11.1769 16.1056C11.1769 20.9738 15.1308 24.9256 19.9989 24.9256V16.9256C19.547 16.9256 19.1769 16.5534 19.1769 16.1056H11.1769ZM19.9989 24.9256C24.8648 24.9256 28.8229 20.976 28.8229 16.1056H20.8229C20.8229 16.5512 20.453 16.9256 19.9989 16.9256V24.9256ZM28.8229 16.1056C28.8229 11.2365 24.868 7.2816 19.9989 7.2816V15.2816C20.4498 15.2816 20.8229 15.6547 20.8229 16.1056H28.8229Z" fill="#6E6E6E" mask="url(#path-1-inside-1_2_60)"/>
</svg>
