<svg width="637" height="150" viewBox="0 0 637 150" fill="none" xmlns="http://www.w3.org/2000/svg">
<path d="M84.0637 15.9098V70.957L78.7322 72.8685V14.9241C80.3451 15.0734 82.1521 15.4319 84.0637 15.9098Z" fill="#E0E3E1"/>
<path d="M84.0637 83.6958V133.217L78.7322 136.548V85.6372L84.0637 83.6958Z" fill="#E0E3E1"/>
<path d="M121.489 48.5409V102.722C121.489 103.797 121.384 104.753 121.235 105.634C120.607 108.92 118.487 111.757 115.649 113.534L84.0636 133.217V83.6958L106.032 75.7359C115.515 71.7933 112.214 60.8615 112.214 60.8615L84.0636 70.957V15.9098C93.278 18.2096 104.643 23.5859 104.643 23.5859C121.937 32.4419 121.489 48.5409 121.489 48.5409Z" fill="white"/>
<path d="M72.5344 14.9241V72.8536L41.4117 61.6978C41.4117 61.6978 38.7833 64.595 40.9488 69.359C28.4041 58.7707 23.3265 46.5397 21.3253 37.3104C21.3253 37.2955 21.3253 37.2955 21.3253 37.2805C21.1909 34.9359 21.624 33.5769 21.624 33.5769C32.735 3.75339 68.2931 0.00492477 68.2931 0.00492477C62.0507 4.17155 65.2167 8.54725 65.2167 8.54725C65.2167 8.54725 66.6952 11.0861 69.7716 12.3106C72.8331 13.5203 72.5344 14.9241 72.5344 14.9241Z" fill="url(#paint0_linear_1_11)"/>
<path d="M72.5344 85.6372C65.4706 86.6528 45.2498 86.2645 45.2498 86.2645C21.9973 84.3678 9.22862 69.7025 9.22862 69.7025C9.22862 69.7025 9.22862 69.6876 9.21369 69.6876C-8.82674 43.9113 20.2201 23.0782 20.2201 23.0782C20.2201 23.0782 19.5182 28.9473 21.3103 37.2805C21.3103 37.2955 21.3103 37.2955 21.3103 37.3104C23.3115 46.5397 28.3891 58.7707 40.9338 69.359V69.374C48.4606 75.721 58.6755 81.4856 72.5344 85.6372Z" fill="url(#paint1_linear_1_11)"/>
<path d="M72.5345 85.6372V126.512C72.5345 130.619 68.5321 132.859 64.9031 131.649C60.1839 130.051 55.6141 128.05 51.1488 125.81C42.0539 121.255 33.2278 116.118 24.5212 110.861C-6.97486 91.82 1.32852 61.9368 1.32852 61.9368C4.15107 67.7014 8.91506 69.5831 9.21374 69.6876C9.22868 69.6876 9.22868 69.7025 9.22868 69.7025C9.22868 69.7025 21.9974 84.3678 45.2349 86.2645C45.2498 86.2495 65.4706 86.6528 72.5345 85.6372Z" fill="url(#paint2_linear_1_11)"/>
<path d="M132.749 43.6873V107.202L128.074 104.394V48.2272C128.074 48.2272 127.597 44.5833 132.749 43.6873Z" fill="#E0E3E1"/>
<path d="M153.029 57.4565C153.029 65.9242 153.029 92.716 153.029 92.716C153.029 92.716 153.164 99.4961 146.249 103.364L142.366 105.604C142.366 105.604 140.067 106.903 138.842 110.368C137.602 113.848 134.257 118.403 134.257 118.403L128.254 126.109C128.254 126.109 128.806 128.648 127.283 130.156L106.704 148.644C106.704 148.644 105.016 149.63 102.507 148.644L95.085 139.564C95.085 139.564 93.6364 137.653 98.6244 134.248C103.612 130.843 117.964 122.256 117.964 122.256C117.964 122.256 119.816 120.703 123.699 121.27L125.147 121.584C125.147 121.584 131.479 111.354 132.809 107.247L132.749 107.202V43.6873C133.003 43.6425 133.242 43.6126 133.525 43.5827C133.525 43.5827 130.374 26.2143 106.823 13.4755C106.823 13.4755 87.155 3.45471 81.8981 2.40932C81.8981 2.40932 80.7333 1.84182 80.8378 1.03538C80.9424 0.228935 82.839 0.64709 82.839 0.64709C90.082 1.97623 105.703 5.67989 119.129 14.5806C137.319 26.6175 140.425 37.7435 140.425 37.7435L142.202 44.0606C142.202 44.0606 153.029 48.9739 153.029 57.4565Z" fill="white"/>
<path d="M239.11 53.7678C240.021 53.7678 240.469 54.2009 240.469 55.0671V60.7122C240.469 61.5783 240.021 62.0114 239.11 62.0114H213.349C211.81 62.0114 210.526 62.1458 209.525 62.3997C208.51 62.6536 207.718 63.0867 207.121 63.699C206.524 64.3113 206.106 65.1476 205.852 66.193C205.598 67.2384 205.463 68.5376 205.463 70.0759V71.2706H238.826C239.692 71.2706 240.125 71.7037 240.125 72.5699V77.2592C240.125 78.1254 239.692 78.5585 238.826 78.5585H205.463V93.9854C205.463 94.8516 205.03 95.2847 204.164 95.2847H197.757C196.846 95.2847 196.398 94.8516 196.398 93.9854V69.4337C196.398 66.5813 196.712 64.1769 197.324 62.1906C197.937 60.2193 198.907 58.6065 200.236 57.352C201.566 56.1125 203.268 55.2015 205.374 54.619C207.465 54.0515 210.018 53.7529 213.035 53.7529H239.11V53.7678Z" fill="url(#paint3_linear_1_11)"/>
<path d="M285.943 53.7678C290.498 53.7678 293.754 54.7983 295.74 56.8592C297.711 58.9201 298.712 61.9666 298.712 65.9988V69.3889C298.712 72.7939 298.025 75.482 296.636 77.4533C295.247 79.4396 292.992 80.694 289.871 81.2466L300.026 93.8361C300.22 94.0302 300.28 94.3289 300.205 94.7321C300.131 95.1353 299.802 95.3295 299.25 95.3295H291.588C291.081 95.3295 290.722 95.2697 290.513 95.1503C290.304 95.0308 290.11 94.8367 289.916 94.5529L280.537 82.2024H261.362V94.0153C261.362 94.8815 260.929 95.3146 260.062 95.3146H253.656C252.745 95.3146 252.297 94.8815 252.297 94.0153V55.545C252.297 54.3502 252.894 53.7678 254.074 53.7678H285.943ZM261.362 74.9593H284.091C286.107 74.9593 287.541 74.5262 288.363 73.6601C289.199 72.7939 289.602 71.4647 289.602 69.6876V67.1936C289.602 65.4164 289.184 64.0873 288.363 63.2211C287.526 62.3549 286.107 61.9218 284.091 61.9218H262.138C261.63 61.9218 261.362 62.1608 261.362 62.6387V74.9593Z" fill="url(#paint4_linear_1_11)"/>
<path d="M338.287 53.7678C339.796 53.7678 341.065 54.0814 342.081 54.6937C343.111 55.306 344.112 56.5007 345.112 58.2779L364.751 93.9555C364.945 94.3588 364.99 94.6724 364.9 94.9412C364.795 95.1951 364.512 95.3295 364.034 95.3295H356.492C355.82 95.3295 355.372 95.0756 355.133 94.5529L350.922 86.8917H323.025L318.933 94.5529C318.649 95.0607 318.201 95.3295 317.574 95.3295H309.853C309.345 95.3295 309.031 95.1951 308.927 94.9412C308.822 94.6873 308.882 94.3588 309.076 93.9555L328.55 58.2779C329.536 56.5007 330.507 55.306 331.462 54.6937C332.418 54.0814 333.523 53.7678 334.793 53.7678H338.287ZM326.773 80.0071H347.188L337.75 62.6088C337.585 62.3251 337.376 62.1906 337.093 62.1906H336.734C336.45 62.1906 336.241 62.3251 336.077 62.6088L326.773 80.0071Z" fill="url(#paint5_linear_1_11)"/>
<path d="M383.523 53.7678C384.389 53.7678 384.822 54.2009 384.822 55.0671V70.8524H393.185C394.141 70.8524 394.933 70.8226 395.56 70.7628C396.187 70.7031 396.755 70.5687 397.217 70.3745C397.68 70.1804 398.128 69.8967 398.517 69.5382C398.905 69.1798 399.323 68.7318 399.756 68.1792L409.971 54.5294C410.165 54.2457 410.36 54.0515 410.569 53.9321C410.763 53.8126 411.136 53.7529 411.689 53.7529H419.051C419.559 53.7529 419.873 53.9171 419.977 54.2606C420.082 54.6041 420.022 54.9028 419.828 55.1865L408.314 70.0908C407.641 71.0018 407.014 71.7784 406.447 72.4056C405.879 73.0328 405.312 73.5854 404.759 74.0633C406.297 75.0191 407.806 76.4378 409.269 78.3344L421.441 93.7614C421.605 93.9555 421.665 94.2692 421.62 94.6873C421.575 95.1055 421.261 95.3146 420.664 95.3146H413.063C412.555 95.3146 412.196 95.2548 411.987 95.1353C411.793 95.0159 411.584 94.8217 411.39 94.538L400.473 80.4103C399.682 79.3798 398.83 78.6779 397.919 78.3046C397.008 77.9312 395.649 77.7371 393.827 77.7371H384.807V94.0003C384.807 94.8665 384.374 95.2996 383.508 95.2996H377.101C376.19 95.2996 375.742 94.8665 375.742 94.0003V55.082C375.742 54.2158 376.19 53.7827 377.101 53.7827H383.523V53.7678Z" fill="url(#paint6_linear_1_11)"/>
<path d="M473.501 53.7678C474.367 53.7678 474.8 54.2009 474.8 55.0671V60.8764C474.8 61.7874 474.367 62.2354 473.501 62.2354H447.083C445.544 62.2354 444.26 62.3698 443.259 62.6237C442.244 62.8776 441.452 63.3107 440.855 63.923C440.258 64.5353 439.839 65.3567 439.571 66.3871C439.317 67.4176 439.182 68.7169 439.182 70.2999V78.7227C439.182 80.3057 439.317 81.6199 439.571 82.6653C439.825 83.7107 440.258 84.547 440.855 85.1593C441.452 85.7716 442.244 86.2047 443.259 86.4586C444.275 86.7125 445.544 86.8469 447.083 86.8469H473.501C474.367 86.8469 474.8 87.28 474.8 88.1462V93.9555C474.8 94.8217 474.367 95.2548 473.501 95.2548H446.724C443.722 95.2548 441.169 94.9711 439.063 94.4185C436.972 93.8659 435.255 92.9699 433.926 91.7154C432.596 90.4759 431.626 88.8481 431.013 86.8469C430.401 84.8457 430.088 82.4264 430.088 79.574V69.359C430.088 66.5066 430.386 64.1022 431.013 62.116C431.626 60.1447 432.596 58.5318 433.926 57.2773C435.255 56.0378 436.957 55.1268 439.063 54.5444C441.154 53.9769 443.707 53.6782 446.724 53.6782H473.501V53.7678Z" fill="url(#paint7_linear_1_11)"/>
<path d="M494.872 53.7678C495.738 53.7678 496.171 54.2009 496.171 55.0671V94.0003C496.171 94.8665 495.738 95.2996 494.872 95.2996H488.465C487.554 95.2996 487.106 94.8665 487.106 94.0003V55.082C487.106 54.2158 487.554 53.7827 488.465 53.7827H494.872V53.7678Z" fill="url(#paint8_linear_1_11)"/>
<path d="M517.661 53.7678C518.527 53.7678 518.96 54.2009 518.96 55.0671V78.7526C518.96 80.3356 519.095 81.6498 519.349 82.6952C519.603 83.7406 520.036 84.5769 520.618 85.1892C521.216 85.8015 522.007 86.2346 523.023 86.4885C524.038 86.7424 525.307 86.8768 526.846 86.8768H543.288C544.826 86.8768 546.111 86.7424 547.111 86.4885C548.127 86.2346 548.918 85.8015 549.516 85.1892C550.113 84.5769 550.531 83.7406 550.755 82.6952C550.994 81.6498 551.114 80.3356 551.114 78.7526V55.082C551.114 54.2158 551.547 53.7827 552.413 53.7827H558.879C559.746 53.7827 560.179 54.2158 560.179 55.082V79.6486C560.179 82.5011 559.88 84.9204 559.283 86.9216C558.685 88.9227 557.73 90.5356 556.4 91.7901C555.071 93.0296 553.354 93.9406 551.233 94.4932C549.113 95.0457 546.559 95.3295 543.542 95.3295H526.443C523.441 95.3295 520.887 95.0457 518.781 94.4932C516.676 93.9406 514.973 93.0446 513.644 91.7901C512.315 90.5506 511.344 88.9227 510.732 86.9216C510.12 84.9204 509.806 82.5011 509.806 79.6486V55.082C509.806 54.2158 510.254 53.7827 511.165 53.7827H517.661V53.7678Z" fill="url(#paint9_linear_1_11)"/>
<path d="M585.686 53.7678C586.552 53.7678 587.314 53.8275 587.941 53.947C588.569 54.0665 589.136 54.2905 589.599 54.634C590.077 54.9775 590.495 55.4255 590.868 55.993C591.242 56.5605 591.63 57.3221 592.033 58.2779L604.384 86.7722C604.548 87.1306 604.817 87.3099 605.22 87.3099H605.937C606.325 87.3099 606.609 87.1306 606.773 86.7722L619.124 58.2779C619.527 57.3221 619.9 56.5605 620.289 55.993C620.662 55.4255 621.095 54.9625 621.573 54.634C622.051 54.2905 622.588 54.0665 623.201 53.947C623.813 53.8275 624.56 53.7678 625.426 53.7678H631.773C633.834 53.7678 635.223 54.2308 635.925 55.1567C636.641 56.0826 637 57.6805 637 59.9356V94.0003C637 94.8665 636.552 95.2996 635.641 95.2996H629.593C628.726 95.2996 628.293 94.8665 628.293 94.0003V63.027C628.293 62.6387 628.129 62.4296 627.815 62.4296H627.278C626.875 62.4296 626.621 62.5939 626.501 62.9075L614.509 89.5052C614.031 90.5804 613.553 91.4765 613.06 92.2083C612.568 92.94 612.03 93.5374 611.463 94.0153C610.895 94.4932 610.238 94.8217 609.506 95.0308C608.774 95.2249 607.908 95.3295 606.923 95.3295H604.07C603.085 95.3295 602.218 95.2249 601.487 95.0308C600.755 94.8367 600.098 94.4932 599.53 94.0153C598.963 93.5374 598.425 92.94 597.932 92.2083C597.439 91.4765 596.947 90.5804 596.484 89.5052L584.491 62.9075C584.372 62.5939 584.118 62.4296 583.715 62.4296H583.177C582.864 62.4296 582.699 62.6237 582.699 63.027V94.0153C582.699 94.8815 582.266 95.3146 581.4 95.3146H575.307C574.396 95.3146 573.948 94.8815 573.948 94.0153V59.9356C573.948 57.6805 574.306 56.0826 575.023 55.1567C575.74 54.2308 577.144 53.7678 579.235 53.7678H585.686Z" fill="url(#paint10_linear_1_11)"/>
<defs>
<linearGradient id="paint0_linear_1_11" x1="21.2878" y1="36.4329" x2="72.5416" y2="36.4329" gradientUnits="userSpaceOnUse">
<stop stop-color="#FAA523"/>
<stop offset="0.1461" stop-color="#F49420"/>
<stop offset="0.5144" stop-color="#E86F1A"/>
<stop offset="0.8121" stop-color="#E05816"/>
<stop offset="1" stop-color="#DD5015"/>
</linearGradient>
<linearGradient id="paint1_linear_1_11" x1="37.9241" y1="86.3309" x2="37.9241" y2="23.0759" gradientUnits="userSpaceOnUse">
<stop stop-color="#FAA523"/>
<stop offset="1" stop-color="#DD5015"/>
</linearGradient>
<linearGradient id="paint2_linear_1_11" x1="0.342867" y1="96.9521" x2="72.5336" y2="96.9521" gradientUnits="userSpaceOnUse">
<stop stop-color="#FAA523"/>
<stop offset="0.6543" stop-color="#E66A19"/>
<stop offset="1" stop-color="#DD5015"/>
</linearGradient>
<linearGradient id="paint3_linear_1_11" x1="192.965" y1="76.7095" x2="651.776" y2="6.9487" gradientUnits="userSpaceOnUse">
<stop stop-color="#FAA523"/>
<stop offset="0.1461" stop-color="#F49420"/>
<stop offset="0.5144" stop-color="#E86F1A"/>
<stop offset="0.8121" stop-color="#E05816"/>
<stop offset="1" stop-color="#DD5015"/>
</linearGradient>
<linearGradient id="paint4_linear_1_11" x1="194.533" y1="87.023" x2="653.343" y2="17.2623" gradientUnits="userSpaceOnUse">
<stop stop-color="#FAA523"/>
<stop offset="0.1461" stop-color="#F49420"/>
<stop offset="0.5144" stop-color="#E86F1A"/>
<stop offset="0.8121" stop-color="#E05816"/>
<stop offset="1" stop-color="#DD5015"/>
</linearGradient>
<linearGradient id="paint5_linear_1_11" x1="196.173" y1="97.8151" x2="654.985" y2="28.0544" gradientUnits="userSpaceOnUse">
<stop stop-color="#FAA523"/>
<stop offset="0.1461" stop-color="#F49420"/>
<stop offset="0.5144" stop-color="#E86F1A"/>
<stop offset="0.8121" stop-color="#E05816"/>
<stop offset="1" stop-color="#DD5015"/>
</linearGradient>
<linearGradient id="paint6_linear_1_11" x1="197.295" y1="105.194" x2="656.107" y2="35.4334" gradientUnits="userSpaceOnUse">
<stop stop-color="#FAA523"/>
<stop offset="0.1461" stop-color="#F49420"/>
<stop offset="0.5144" stop-color="#E86F1A"/>
<stop offset="0.8121" stop-color="#E05816"/>
<stop offset="1" stop-color="#DD5015"/>
</linearGradient>
<linearGradient id="paint7_linear_1_11" x1="198.648" y1="114.093" x2="657.46" y2="44.3319" gradientUnits="userSpaceOnUse">
<stop stop-color="#FAA523"/>
<stop offset="0.1461" stop-color="#F49420"/>
<stop offset="0.5144" stop-color="#E86F1A"/>
<stop offset="0.8121" stop-color="#E05816"/>
<stop offset="1" stop-color="#DD5015"/>
</linearGradient>
<linearGradient id="paint8_linear_1_11" x1="199.392" y1="118.982" x2="658.203" y2="49.2212" gradientUnits="userSpaceOnUse">
<stop stop-color="#FAA523"/>
<stop offset="0.1461" stop-color="#F49420"/>
<stop offset="0.5144" stop-color="#E86F1A"/>
<stop offset="0.8121" stop-color="#E05816"/>
<stop offset="1" stop-color="#DD5015"/>
</linearGradient>
<linearGradient id="paint9_linear_1_11" x1="200.232" y1="124.506" x2="659.043" y2="54.7455" gradientUnits="userSpaceOnUse">
<stop stop-color="#FAA523"/>
<stop offset="0.1461" stop-color="#F49420"/>
<stop offset="0.5144" stop-color="#E86F1A"/>
<stop offset="0.8121" stop-color="#E05816"/>
<stop offset="1" stop-color="#DD5015"/>
</linearGradient>
<linearGradient id="paint10_linear_1_11" x1="202" y1="136.133" x2="660.811" y2="66.3719" gradientUnits="userSpaceOnUse">
<stop stop-color="#FAA523"/>
<stop offset="0.1461" stop-color="#F49420"/>
<stop offset="0.5144" stop-color="#E86F1A"/>
<stop offset="0.8121" stop-color="#E05816"/>
<stop offset="1" stop-color="#DD5015"/>
</linearGradient>
</defs>
</svg>
